<?xml version="1.0" standalone="no"?>
<!DOCTYPE svg PUBLIC "-//W3C//DTD SVG 20010904//EN"
 "http://www.w3.org/TR/2001/REC-SVG-20010904/DTD/svg10.dtd">
<svg version="1.0" xmlns="http://www.w3.org/2000/svg"
 width="1600.000000pt" height="1600.000000pt" viewBox="0 0 1600.000000 1600.000000"
 preserveAspectRatio="xMidYMid meet">
<metadata>
Created by potrace 1.11, written by Peter Selinger 2001-2013
</metadata>
<g transform="translate(0.000000,1600.000000) scale(0.100000,-0.100000)"
fill="#000000" stroke="none">
<path d="M7906 15590 c-63 -16 -153 -70 -197 -117 -22 -24 -55 -74 -72 -111
-29 -61 -32 -76 -32 -162 0 -82 4 -103 27 -153 15 -32 37 -72 49 -89 12 -16
18 -33 13 -37 -5 -3 -61 -45 -124 -92 -740 -555 -1936 -1087 -3125 -1389 -293
-74 -763 -170 -837 -170 -11 0 -18 7 -18 18 0 31 -56 136 -99 184 -28 32 -68
60 -119 85 -72 36 -81 38 -172 38 -91 0 -100 -2 -172 -37 -91 -45 -147 -103
-191 -196 -29 -61 -32 -76 -32 -162 0 -119 41 -263 119 -425 231 -476 685
-736 1349 -771 l127 -7 0 -999 0 -998 -51 -103 c-61 -120 -137 -241 -224 -352
-72 -92 -252 -270 -340 -337 -312 -236 -695 -384 -1148 -443 -65 -8 -144 -15
-176 -15 l-58 0 -6 75 c-11 147 -92 267 -225 332 -72 36 -81 38 -172 38 -91 0
-100 -2 -172 -37 -180 -90 -256 -259 -214 -482 47 -245 152 -457 310 -625 261
-275 632 -420 1144 -447 l132 -7 0 -999 0 -998 -51 -103 c-61 -120 -137 -241
-224 -352 -72 -92 -252 -270 -340 -337 -312 -236 -695 -384 -1148 -443 -65 -8
-144 -15 -176 -15 l-58 0 -6 75 c-11 147 -92 267 -225 332 -72 36 -81 38 -172
38 -91 0 -100 -2 -172 -37 -180 -90 -256 -259 -214 -482 47 -245 152 -457 310
-625 261 -275 632 -420 1144 -447 l132 -7 0 -1398 0 -1399 6000 0 6000 0 0
1399 0 1398 133 7 c314 16 563 74 777 180 364 181 601 493 676 891 41 223 -34
394 -214 482 -72 36 -81 38 -172 38 -91 0 -100 -2 -172 -37 -134 -67 -214
-185 -225 -333 l-6 -75 -58 0 c-160 0 -477 60 -693 131 -330 108 -599 273
-828 505 -155 158 -267 313 -364 506 l-54 108 0 998 0 999 133 7 c314 16 563
74 777 180 364 181 601 493 676 891 41 223 -34 394 -214 482 -72 36 -81 38
-172 38 -91 0 -100 -2 -172 -37 -134 -67 -214 -185 -225 -333 l-6 -75 -58 0
c-160 0 -477 60 -693 131 -330 108 -599 273 -828 505 -155 158 -267 313 -364
506 l-54 108 0 998 0 999 126 7 c664 35 1114 286 1346 751 81 162 134 365 125
477 -12 141 -95 261 -225 325 -72 36 -81 38 -171 38 -87 0 -102 -3 -163 -32
-37 -17 -87 -50 -112 -73 -46 -42 -116 -164 -116 -201 0 -27 -26 -25 -252 16
-1317 241 -2779 830 -3660 1474 -80 58 -157 116 -172 128 l-28 22 21 30 c12
17 34 56 49 88 23 50 27 71 27 153 0 86 -3 101 -31 160 -69 144 -190 228 -340
235 -44 3 -96 0 -118 -5z m3494 -4590 l0 -1000 -3400 0 -3400 0 0 1000 0 1000
3400 0 3400 0 0 -1000z m1200 -4400 l0 -1000 -4600 0 -4600 0 0 1000 0 1000
4600 0 4600 0 0 -1000z m1200 -4700 l0 -1300 -1900 0 -1900 0 0 900 0 900
-2000 0 -2000 0 0 -900 0 -900 -1900 0 -1900 0 0 1300 0 1300 5800 0 5800 0 0
-1300z"/>
<path d="M6000 11000 l0 -600 400 0 400 0 0 600 0 600 -400 0 -400 0 0 -600z"/>
<path d="M9200 11000 l0 -600 400 0 400 0 0 600 0 600 -400 0 -400 0 0 -600z"/>
<path d="M6000 6600 l0 -600 400 0 400 0 0 600 0 600 -400 0 -400 0 0 -600z"/>
<path d="M9200 6600 l0 -600 400 0 400 0 0 600 0 600 -400 0 -400 0 0 -600z"/>
</g>
</svg>
